<?xml version="1.0" encoding="utf-8"?>
<!-- Generator: Adobe Illustrator 22.0.1, SVG Export Plug-In . SVG Version: 6.00 Build 0)  -->
<svg version="1.1" id="Capa_1" xmlns="http://www.w3.org/2000/svg" xmlns:xlink="http://www.w3.org/1999/xlink" x="0px" y="0px"
	 viewBox="0 0 270 84" style="enable-background:new 0 0 270 84;" xml:space="preserve">
<style type="text/css">
	.st0{fill-rule:evenodd;clip-rule:evenodd;fill:#D4002A;}
</style>
<path class="st0" d="M236.7,22.5c-5-4.4-9.5-5.9-14.3-5.9s-10.9,1.7-10.9,7.8c0,5.2,4.6,6.9,12,9.3c10.6,3.4,24.2,7.8,24.2,23.4
	c0,18-14.4,26-29.9,26c-11.1,0-22.4-4.1-29.2-11.2L200.2,60c4.6,5,11.5,7.6,17.7,7.6c5.7,0,10.8-2.2,10.8-8.5c0-6-6-7.9-16.2-11.3
	c-9.9-3.2-19.9-8.1-19.9-22.2C192.5,8.2,208.1,1,222.7,1c8.8,0,18.7,3.3,25.6,9.6L236.7,22.5z M52.3,50.6H32.6l9.9-26.8L52.3,50.6z
	 M84.4,81L52.5,3H33.7l-33,78h20.8l5.7-15.3h30.2L63.5,81H84.4z M151.4,3h-20.8l-18.1,56.4L94.1,3H72.9l29.5,78h18.8L151.4,3z
	 M158.9,81h19V3h-19V81z M256,9.6c0,3.7,3,6.6,6.7,6.6s6.7-2.9,6.7-6.6s-3-6.6-6.7-6.6C259,3,256,5.9,256,9.6 M257,9.6
	c0-3.1,2.5-5.6,5.6-5.6s5.6,2.5,5.6,5.6s-2.5,5.6-5.6,5.6C259.6,15.2,257,12.7,257,9.6 M260.1,13.3h1.4v-3.1h1l1.7,3.1h1.6l-2-3.3
	c1.1-0.2,1.7-0.9,1.7-2c0-1.6-1.4-2.2-2.8-2.2h-2.6L260.1,13.3L260.1,13.3z M261.4,9.1V7h1.2c0.7,0,1.5,0.2,1.5,1
	c0,0.9-0.9,1.1-1.7,1.1H261.4z"/>
</svg>
