<?xml version="1.0" encoding="iso-8859-1"?>
<!-- Generator: Adobe Illustrator 19.0.0, SVG Export Plug-In . SVG Version: 6.00 Build 0)  -->
<svg xmlns="http://www.w3.org/2000/svg" xmlns:xlink="http://www.w3.org/1999/xlink" version="1.1" id="Layer_1" x="0px" y="0px" viewBox="0 0 512 512" style="enable-background:new 0 0 512 512;" xml:space="preserve" width="512" height="512">
<g>
	<path d="M354.479,159.983V30h5.561c8.284,0,15-6.716,15-15s-6.716-15-15-15H151.96c-8.284,0-15,6.716-15,15s6.716,15,15,15h5.561   v129.983c-22.282,4.699-39.061,24.508-39.061,48.168v220.134c0,27.146,22.084,49.23,49.23,49.23h13.827V497c0,8.284,6.716,15,15,15   s15-6.716,15-15v-19.484h87.905V497c0,8.284,6.716,15,15,15s15-6.716,15-15v-19.484h14.889c27.146,0,49.23-22.084,49.23-49.23   V208.151C393.541,184.492,376.762,164.682,354.479,159.983z M344.311,447.516H167.689c-10.604,0-19.23-8.626-19.23-19.23V293.167   h215.081v135.119C363.541,438.889,354.914,447.516,344.311,447.516z M280.818,158.921h-49.636v-1.318   c0-13.685,11.133-24.818,24.818-24.818s24.818,11.133,24.818,24.818V158.921z M167.689,188.921h176.621   c10.604,0,19.23,8.626,19.23,19.23v55.015H148.459v-55.015C148.459,197.548,157.086,188.921,167.689,188.921z M324.479,30v128.921   h-13.662v-1.318c0-30.227-24.591-54.818-54.818-54.818s-54.818,24.591-54.818,54.818v1.318h-13.662V30H324.479z"/>
	<path d="M239.217,244.733h33.566c8.284,0,15-6.716,15-15s-6.716-15-15-15h-33.566c-8.284,0-15,6.716-15,15   S230.933,244.733,239.217,244.733z"/>
</g>















</svg>
