<svg id="Layer_1" enable-background="new 0 0 512 512" height="512" viewBox="0 0 512 512" width="512" xmlns="http://www.w3.org/2000/svg"><g><path d="m422 256.576v-165.076c0-24.813-20.187-45-45-45h-332c-24.813 0-45 20.187-45 45v222c0 24.813 20.187 45 45 45h257.025c-.013.666-.025 1.331-.025 2 0 57.897 47.103 105 105 105s105-47.103 105-105c0-52.805-39.183-96.623-90-103.924zm-377-180.076h332c8.271 0 15 6.729 15 15v9h-362v-9c0-8.271 6.729-15 15-15zm-15 54h362v30h-362zm15 198c-8.271 0-15-6.729-15-15v-123h362v66.076c-40.082 5.759-72.921 34.236-85.008 71.924zm362 107c-41.355 0-75-33.645-75-75s33.645-75 75-75 75 33.645 75 75-33.645 75-75 75z"/><path d="m428.894 332.894-25.394 25.393-7.894-7.894c-5.857-5.858-15.355-5.858-21.213 0s-5.858 15.355 0 21.213l18.5 18.5c2.929 2.929 6.768 4.394 10.606 4.394s7.678-1.464 10.606-4.394l36-36c5.858-5.858 5.858-15.355 0-21.213-5.856-5.858-15.354-5.858-21.211.001z"/><path d="m75 250.501h37.5c8.284 0 15-6.716 15-15s-6.716-15-15-15h-37.5c-8.284 0-15 6.716-15 15s6.716 15 15 15z"/><path d="m160 268.5h-85c-8.284 0-15 6.716-15 15s6.716 15 15 15h85c8.284 0 15-6.716 15-15s-6.716-15-15-15z"/></g></svg>