<?xml version="1.0" encoding="iso-8859-1"?>
<!-- Generator: Adobe Illustrator 19.0.0, SVG Export Plug-In . SVG Version: 6.00 Build 0)  -->
<svg version="1.1" id="Capa_1" xmlns="http://www.w3.org/2000/svg" xmlns:xlink="http://www.w3.org/1999/xlink" x="0px" y="0px"
	 viewBox="0 0 512 512" style="enable-background:new 0 0 512 512;" xml:space="preserve">
<g>
	<g>
		<path d="M498.82,206.607L305.394,13.18C296.895,4.68,285.594,0,273.574,0H45C20.187,0,0,20.187,0,45v422c0,24.813,20.187,45,45,45
			h241c5.682,0,10.875-3.21,13.417-8.292C333.65,435.24,404.99,391,481.164,391H497c8.284,0,15-6.716,15-15V238.427
			C512,226.407,507.319,215.107,498.82,206.607z M482,361h-0.836c-43.098,0-85.471,12.164-122.539,35.177
			c-34.306,21.299-62.39,50.844-81.685,85.823H45c-8.271,0-15-6.729-15-15V45c0-8.271,6.729-15,15-15h228.574
			c4.006,0,7.773,1.56,10.606,4.394L477.606,227.82c2.833,2.833,4.394,6.6,4.394,10.607V361z"/>
	</g>
</g>
<g>
	<g>
		<path d="M446.637,240.282L271.778,64.424C268.963,61.592,265.135,60,261.142,60H75c-8.284,0-15,6.716-15,15v181
			c0,8.284,6.716,15,15,15h361c8.284,0,15-6.716,15-15v-5.142C451,246.895,449.431,243.092,446.637,240.282z M90,241V90h164.903
			l150.141,151H90z"/>
	</g>
</g>
<g>
	<g>
		<path d="M165,331H75c-8.284,0-15,6.716-15,15v15c0,33.084,26.916,60,60,60s60-26.916,60-60v-15C180,337.716,173.284,331,165,331z
			 M120,391c-16.542,0-30-13.558-30-30.1h60C150,377.442,136.542,391,120,391z"/>
	</g>
</g>
<g>
</g>
<g>
</g>
<g>
</g>
<g>
</g>
<g>
</g>
<g>
</g>
<g>
</g>
<g>
</g>
<g>
</g>
<g>
</g>
<g>
</g>
<g>
</g>
<g>
</g>
<g>
</g>
<g>
</g>
</svg>
