<svg id="Capa_1" data-name="Capa 1" xmlns="http://www.w3.org/2000/svg" viewBox="0 0 394 107.02"><defs><style>.cls-1{fill:#0a2240;}.cls-2{fill:#ce0e2d;}.cls-3{font-size:20.57px;fill:#a4a7aa;font-family:Eurostile-Med, Eurostile;letter-spacing:0.04em;}.cls-4{letter-spacing:0.06em;}.cls-5{letter-spacing:0.07em;}.cls-6{letter-spacing:0.06em;}.cls-7{letter-spacing:0.06em;}.cls-8{letter-spacing:0.08em;}.cls-9{letter-spacing:0.01em;}.cls-10{letter-spacing:0.04em;}.cls-11{letter-spacing:0.07em;}.cls-12{letter-spacing:0.08em;}.cls-13{letter-spacing:0.06em;}</style></defs><path class="cls-1" d="M116.34,71.62H106.7V67.11h-.1c-1.71,3.91-5.07,5-10.25,5-6,0-14.31-.27-14.31-12.37V43.59h9.65v16.1c0,2.75,2,4.13,6.22,4.13h2.21c4.12,0,6.58-2.09,6.58-6.11V43.59h9.64Z" transform="translate(-3 -2.15)"/><path class="cls-1" d="M125.27,51.17h-4.82V43.59h4.82V37h9.64v6.6h15v7.58h-15V62c0,2.09,1.41,2.53,3.72,2.53,3.11,0,4-.77,4-3.36V59.25H151v3.41c0,5.33-3.21,9.4-10.9,9.4h-3.81c-5.93,0-11-2-11-9.78Z" transform="translate(-3 -2.15)"/><path class="cls-1" d="M155.8,54.25c0-9.23,5.67-11.1,10.59-11.1H180.8c4.92,0,10.6,1.87,10.6,11.1V61c0,9.23-5.68,11.1-10.6,11.1H166.39c-4.92,0-10.59-1.87-10.59-11.1Zm9.64,4.67c0,4,2.16,5.23,6.57,5.23h2.31c6.23,0,7.43-.88,7.43-4.62V55.68c0-3.74-1.2-4.62-7.43-4.62H172c-4.41,0-6.57,1.21-6.57,5.23Z" transform="translate(-3 -2.15)"/><path class="cls-2" d="M197.82,31.83h33.64c8.58,0,10.89,4.67,10.89,11.81v2.53c0,5.33-1.1,8.47-6.22,9.79v.11c3.31.66,6.07,2.25,6.07,8.79v6.76H231.06V66.84c0-4.18-1.11-5.55-4.57-5.55H209V71.62H197.82ZM209,51.39h18.43c3,0,4.12-1.32,4.12-4.17V45.9c0-3.52-1.61-4.18-5.12-4.18H209Z" transform="translate(-3 -2.15)"/><path class="cls-2" d="M248.22,56.07c0-10.61,4.82-12.92,11.85-12.92h6.73c10.24,0,14.46,2.36,14.46,12.09V60h-23.4v1.7c0,3,1.91,3.8,5.93,3.8h3c5.22,0,5.47-1.54,5.47-3.19h9v1.21c0,7-5.72,8.57-12.7,8.57h-7.23c-6.38,0-13.11-1.32-13.11-13.3Zm23.7-2.37c0-3.35-1.4-4-7-4-6.27,0-7,.61-7,4Z" transform="translate(-3 -2.15)"/><path class="cls-2" d="M286.68,43.59h9.64v4.5h.1c1.71-3.9,5.07-4.94,10.24-4.94,6,0,14.31.27,14.31,12.37v16.1h-9.64V55.52c0-2.75-2-4.13-6.22-4.13H302.9c-4.12,0-6.58,2.09-6.58,6.1V71.62h-9.64Z" transform="translate(-3 -2.15)"/><path class="cls-2" d="M329.91,51.17h-4.82V43.59h4.82V37h9.64v6.6h15v7.58h-15V62c0,2.09,1.4,2.53,3.71,2.53,3.11,0,4-.77,4-3.36V59.25h8.43v3.41c0,5.33-3.21,9.4-10.89,9.4H341c-5.92,0-11-2-11-9.78Z" transform="translate(-3 -2.15)"/><path class="cls-2" d="M359.48,61.78c0-7.64,4.82-8.08,14.16-8.08,5.27,0,8.18.17,10,2.26V53.48c0-2.75-.75-3.74-4.52-3.74h-5.67c-2.82,0-3.62.28-3.72,2.26h-9.34c0-7.59,3.42-8.85,11.55-8.85h11.2c6.62,0,10.14,3.46,10.14,10.06V71.62h-9.14V68.43c-2.66,3-3.66,3.63-8.49,3.63h-6.57c-5.88.06-9.64-1.37-9.64-8Zm17.17,3.69c6.63,0,7.23-1.1,7.23-3,0-2.09-.55-2.86-5.88-2.86h-4.26c-4.07,0-4.92,1-4.92,3.3,0,1.81,1.3,2.53,5.07,2.53Z" transform="translate(-3 -2.15)"/><polygon class="cls-1" points="46.83 16.13 26.96 16.13 0 70.63 17.06 70.63 36.86 28.78 57.22 70.63 74.2 70.63 46.83 16.13"/><path class="cls-2" d="M35.78,5.3c-22.09,7.12-36.4,24-32,37.75s25.92,19.09,48,12,36.4-24,32-37.75S57.86-1.82,35.78,5.3ZM53,53.35C35.41,59,17.74,53,13.5,39.81S20.07,11.42,37.63,5.76s35.23.4,39.47,13.54S70.53,47.69,53,53.35Z" transform="translate(-3 -2.15)"/><polygon class="cls-1" points="46.83 16.13 26.96 16.13 36.86 28.78 57.22 70.63 74.2 70.63 46.83 16.13"/><text class="cls-3" transform="translate(0 101.88)">F<tspan class="cls-4" x="11.27" y="0">Á</tspan><tspan class="cls-5" x="25.34" y="0">CIL </tspan><tspan class="cls-6" x="63.72" y="0">D</tspan><tspan class="cls-5" x="78.78" y="0">E </tspan><tspan class="cls-7" x="97.89" y="0">R</tspan><tspan class="cls-5" x="112.25" y="0">E</tspan><tspan class="cls-8" x="124.77" y="0">N</tspan><tspan class="cls-9" x="141.1" y="0">T</tspan><tspan class="cls-5" x="151.96" y="0">AR, </tspan><tspan class="cls-10" x="193.08" y="0">F</tspan><tspan class="cls-4" x="204.35" y="0">Á</tspan><tspan class="cls-5" x="218.42" y="0">CIL </tspan><tspan class="cls-6" x="256.8" y="0">D</tspan><tspan class="cls-11" x="271.86" y="0">E </tspan><tspan class="cls-12" x="290.97" y="0">M</tspan><tspan class="cls-11" x="310.63" y="0">ANE</tspan><tspan class="cls-13" x="353.58" y="0">J</tspan><tspan class="cls-11" x="365.29" y="0">AR</tspan></text></svg>