<?xml version="1.0" encoding="utf-8"?>
<!-- Generator: Adobe Illustrator 24.2.1, SVG Export Plug-In . SVG Version: 6.00 Build 0)  -->
<svg version="1.1" id="Capa_1" xmlns="http://www.w3.org/2000/svg" xmlns:xlink="http://www.w3.org/1999/xlink" x="0px" y="0px"
	 viewBox="0 0 394 107" style="enable-background:new 0 0 394 107;" xml:space="preserve">
<style type="text/css">
	.st0{fill:#0A2240;}
	.st1{fill:#CE0E2D;}
	.st2{enable-background:new    ;}
	.st3{fill:#A4A7AA;}
</style>
<g>
	<path class="st0" d="M113.3,69.5h-9.6V65h-0.1c-1.7,3.9-5.1,5-10.3,5c-6,0-14.3-0.3-14.3-12.4V41.4h9.7v16.1c0,2.8,2,4.1,6.2,4.1
		h2.2c4.1,0,6.6-2.1,6.6-6.1V41.4h9.6L113.3,69.5z"/>
</g>
<g>
	<path class="st0" d="M122.3,49h-4.8v-7.6h4.8v-6.6h9.6v6.6h15V49h-15v10.8c0,2.1,1.4,2.5,3.7,2.5c3.1,0,4-0.8,4-3.4v-1.9h8.4v3.4
		c0,5.3-3.2,9.4-10.9,9.4h-3.8c-5.9,0-11-2-11-9.8L122.3,49z"/>
</g>
<g>
	<path class="st0" d="M152.8,52.1c0-9.2,5.7-11.1,10.6-11.1h14.4c4.9,0,10.6,1.9,10.6,11.1v6.8c0,9.2-5.7,11.1-10.6,11.1h-14.4
		c-4.9,0-10.6-1.9-10.6-11.1V52.1z M162.4,56.8c0,4,2.2,5.2,6.6,5.2h2.3c6.2,0,7.4-0.9,7.4-4.6v-3.9c0-3.7-1.2-4.6-7.4-4.6H169
		c-4.4,0-6.6,1.2-6.6,5.2L162.4,56.8z"/>
</g>
<g>
	<path class="st1" d="M194.8,29.7h33.6c8.6,0,10.9,4.7,10.9,11.8V44c0,5.3-1.1,8.5-6.2,9.8v0.1c3.3,0.7,6.1,2.3,6.1,8.8v6.8h-11.1
		v-4.8c0-4.2-1.1-5.5-4.6-5.5H206v10.3h-11.2V29.7z M206,49.2h18.4c3,0,4.1-1.3,4.1-4.2v-1.3c0-3.5-1.6-4.2-5.1-4.2H206V49.2z"/>
</g>
<g>
	<path class="st1" d="M245.2,53.9c0-10.6,4.8-12.9,11.9-12.9h6.7c10.2,0,14.5,2.4,14.5,12.1v4.8h-23.4v1.7c0,3,1.9,3.8,5.9,3.8h3
		c5.2,0,5.5-1.5,5.5-3.2h9v1.2c0,7-5.7,8.6-12.7,8.6h-7.2c-6.4,0-13.1-1.3-13.1-13.3L245.2,53.9z M268.9,51.5c0-3.3-1.4-4-7-4
		c-6.3,0-7,0.6-7,4H268.9z"/>
</g>
<g>
	<path class="st1" d="M283.7,41.4h9.6v4.5h0.1c1.7-3.9,5.1-4.9,10.2-4.9c6,0,14.3,0.3,14.3,12.4v16.1h-9.6V53.4c0-2.8-2-4.1-6.2-4.1
		h-2.2c-4.1,0-6.6,2.1-6.6,6.1v14.1h-9.6V41.4z"/>
</g>
<g>
	<path class="st1" d="M326.9,49h-4.8v-7.6h4.8v-6.6h9.6v6.6h15V49h-15v10.8c0,2.1,1.4,2.5,3.7,2.5c3.1,0,4-0.8,4-3.4v-1.9h8.4v3.4
		c0,5.3-3.2,9.4-10.9,9.4H338c-5.9,0-11-2-11-9.8L326.9,49z"/>
</g>
<g>
	<path class="st1" d="M356.5,59.6c0-7.6,4.8-8.1,14.2-8.1c5.3,0,8.2,0.2,10,2.3v-2.5c0-2.8-0.8-3.7-4.5-3.7h-5.7
		c-2.8,0-3.6,0.3-3.7,2.3h-9.3c0-7.6,3.4-8.9,11.5-8.9h11.2c6.6,0,10.1,3.5,10.1,10.1v18.4h-9.1v-3.2c-2.7,3-3.7,3.6-8.5,3.6h-6.6
		c-5.9,0.1-9.6-1.4-9.6-8L356.5,59.6z M373.7,63.3c6.6,0,7.2-1.1,7.2-3c0-2.1-0.5-2.9-5.9-2.9h-4.3c-4.1,0-4.9,1-4.9,3.3
		c0,1.8,1.3,2.5,5.1,2.5L373.7,63.3z"/>
</g>
<g>
	<polygon class="st0" points="46.8,16.1 27,16.1 0,70.6 17.1,70.6 36.9,28.8 57.2,70.6 74.2,70.6 	"/>
</g>
<g>
	<path class="st1" d="M32.8,3.2c-22.1,7.1-36.4,24-32,37.7s25.9,19.1,48,12s36.4-24,32-37.8S54.9-4,32.8,3.2z M50,51.2
		c-17.6,5.7-35.3-0.3-39.5-13.5s6.6-28.4,24.1-34S69.9,4,74.1,17.1S67.5,45.5,50,51.2z"/>
</g>
<g>
	<polygon class="st0" points="46.8,16.1 27,16.1 36.9,28.8 57.2,70.6 74.2,70.6 	"/>
</g>
<g class="st2">
	<path class="st3" d="M3.4,94.2h6.4v1.7H3.4v6H1.3V88.2H10v1.8H3.4V94.2z"/>
</g>
<g class="st2">
	<path class="st3" d="M14.5,99.1l-0.9,2.8h-2.2l4.8-13.7h3.1l4.9,13.7h-2.2l-1-2.8H14.5z M17.7,89.8L15,97.5h5.3L17.7,89.8z
		 M20.4,86.2l-4,0.7l-0.2-1.1l3.8-1.2L20.4,86.2z"/>
</g>
<g class="st2">
	<path class="st3" d="M37.5,97.1v0.5c0,1.9-0.2,2.7-0.8,3.3c-0.4,0.4-1.1,0.8-1.9,0.9c-0.5,0.1-1.6,0.1-3,0.1
		c-2.1,0-2.9-0.1-3.7-0.6c-1.2-0.6-1.7-1.6-1.8-3.5c-0.1-0.8-0.1-2.4-0.1-3.8c0-3.2,0.2-4.1,1.2-5c1-0.9,2-1.2,5.3-1.2
		c1.9,0,2.6,0.1,3.3,0.5c0.8,0.4,1.2,1.3,1.3,2.4c0,0.4,0.1,0.7,0.1,1.5h-2.1c0-2.4-0.3-2.7-2.8-2.7c-3.7,0-4.1,0.3-4.1,3.2
		c0,4.3,0.1,5.3,0.3,6c0.4,0.9,1,1.1,3.1,1.1c3.1,0,3.6-0.3,3.6-2.4c0-0.2,0-0.3,0-0.7H37.5z"/>
	<path class="st3" d="M42.8,101.9h-2.1V88.2h2.1V101.9z"/>
	<path class="st3" d="M48.9,100h6.7v1.9h-8.8V88.2h2.1V100z"/>
</g>
<g class="st2">
	<path class="st3" d="M65,88.2h6.5c1.9,0,3.1,0.3,3.9,1.2c0.9,1,1.3,2.2,1.3,4.8c0,3.6-0.1,4.7-0.6,5.7c-0.5,1-1.3,1.6-2.4,1.9
		c-0.6,0.1-1.3,0.2-1.8,0.2H65V88.2z M71.1,100.1c1.4,0,2.3-0.3,2.7-0.8c0.5-0.7,0.7-1.6,0.7-4.1c0-2.8-0.1-3.6-0.6-4.3
		c-0.4-0.6-1.2-0.8-2.5-0.8h-4.3v10.1H71.1z"/>
</g>
<g class="st2">
	<path class="st3" d="M82.1,94h6.7v1.6h-6.7v4.5h7v1.8H80V88.2h9.1v1.8h-7V94z"/>
</g>
<g class="st2">
	<path class="st3" d="M99.1,88.2h6.6c3.1,0,4.2,1,4.2,4c0,2.6-0.5,3.4-2.4,3.8V96c1.5,0.1,2.3,1,2.3,2.7v3.2h-2.1v-2.8
		c0-1.6-0.7-2.3-2.3-2.2h-4.2v5h-2.1V88.2z M105.3,95.1c0.9,0,1.5-0.1,1.9-0.4c0.5-0.4,0.7-0.8,0.7-2c0-1.6-0.1-2.1-0.7-2.4
		c-0.3-0.2-0.8-0.2-1.5-0.2h-4.4v5.1H105.3z"/>
</g>
<g class="st2">
	<path class="st3" d="M115.6,94h6.7v1.6h-6.7v4.5h7v1.8h-9.1V88.2h9.1v1.8h-7V94z"/>
</g>
<g class="st2">
	<path class="st3" d="M138.3,101.9h-3.5l-4.8-8.4c-0.2-0.5-0.5-0.9-1.4-2.7l-0.4-0.9H128l0,0.7l0,0.7c0,0,0,0.8,0,1.4v9.1H126V88.2
		h3.5l4.3,7.5c0.5,0.8,0.7,1.3,1.8,3.3l0.6,1.1h0.1v-0.7l0-0.7c0-0.1,0-0.8,0-1.4v-9.1h2.1V101.9z"/>
</g>
<g class="st2">
	<path class="st3" d="M147.5,101.9h-2.1V90.1h-4.2v-1.9h10.6v1.9l-4.3,0V101.9z"/>
</g>
<g class="st2">
	<path class="st3" d="M155.2,99.1l-0.9,2.8H152l4.8-13.7h3.1l4.9,13.7h-2.2l-1-2.8H155.2z M158.4,89.8l-2.7,7.7h5.3L158.4,89.8z"/>
	<path class="st3" d="M167.4,88.2h6.6c3.1,0,4.2,1,4.2,4c0,2.6-0.5,3.4-2.4,3.8V96c1.5,0.1,2.3,1,2.3,2.7v3.2H176v-2.8
		c0-1.6-0.7-2.3-2.3-2.2h-4.2v5h-2.1V88.2z M173.6,95.1c0.9,0,1.5-0.1,1.9-0.4c0.5-0.4,0.7-0.8,0.7-2c0-1.6-0.1-2.1-0.7-2.4
		c-0.3-0.2-0.8-0.2-1.5-0.2h-4.4v5.1H173.6z"/>
	<path class="st3" d="M183.8,101.9c0,1.6-0.4,2.1-1.7,2.1h-0.4v-0.9c0.8,0,1-0.2,1-0.9v-0.3h-0.8v-2.2h2V101.9z"/>
</g>
<g class="st2">
	<path class="st3" d="M196.4,94.2h6.4v1.7h-6.4v6h-2.1V88.2h8.8v1.8h-6.7V94.2z"/>
</g>
<g class="st2">
	<path class="st3" d="M207.6,99.1l-0.9,2.8h-2.2l4.8-13.7h3.1l4.9,13.7h-2.2l-1-2.8H207.6z M210.7,89.8l-2.7,7.7h5.3L210.7,89.8z
		 M213.5,86.2l-4,0.7l-0.2-1.1l3.8-1.2L213.5,86.2z"/>
</g>
<g class="st2">
	<path class="st3" d="M230.6,97.1v0.5c0,1.9-0.2,2.7-0.8,3.3c-0.4,0.4-1.1,0.8-1.9,0.9c-0.5,0.1-1.6,0.1-3,0.1
		c-2.1,0-2.9-0.1-3.7-0.6c-1.2-0.6-1.7-1.6-1.8-3.5c-0.1-0.8-0.1-2.4-0.1-3.8c0-3.2,0.2-4.1,1.2-5c1-0.9,2-1.2,5.3-1.2
		c1.9,0,2.6,0.1,3.3,0.5c0.8,0.4,1.2,1.3,1.3,2.4c0,0.4,0.1,0.7,0.1,1.5h-2.1c0-2.4-0.3-2.7-2.8-2.7c-3.7,0-4.1,0.3-4.1,3.2
		c0,4.3,0.1,5.3,0.3,6c0.4,0.9,1,1.1,3.1,1.1c3.1,0,3.6-0.3,3.6-2.4c0-0.2,0-0.3,0-0.7H230.6z"/>
	<path class="st3" d="M235.9,101.9h-2.1V88.2h2.1V101.9z"/>
	<path class="st3" d="M242,100h6.7v1.9h-8.8V88.2h2.1V100z"/>
</g>
<g class="st2">
	<path class="st3" d="M258.1,88.2h6.5c1.9,0,3.1,0.3,3.9,1.2c0.9,1,1.3,2.2,1.3,4.8c0,3.6-0.1,4.7-0.6,5.7c-0.5,1-1.3,1.6-2.4,1.9
		c-0.6,0.1-1.3,0.2-1.8,0.2h-6.8V88.2z M264.2,100.1c1.4,0,2.3-0.3,2.7-0.8c0.5-0.7,0.7-1.6,0.7-4.1c0-2.8-0.1-3.6-0.6-4.3
		c-0.4-0.6-1.2-0.8-2.5-0.8h-4.3v10.1H264.2z"/>
</g>
<g class="st2">
	<path class="st3" d="M275.2,94h6.7v1.6h-6.7v4.5h7v1.8h-9.1V88.2h9.1v1.8h-7V94z"/>
</g>
<g class="st2">
	<path class="st3" d="M307.8,101.9h-2.1v-9.2c0-0.9,0-1,0.1-2.2l0-0.7h-0.1l-0.2,0.6c-0.4,1.2-0.5,1.5-0.7,1.9l-3.8,9.5h-2l-3.8-9.4
		c-0.2-0.5-0.3-0.8-0.7-1.9l-0.2-0.7h0l0,0.7c0.1,1.2,0.1,1.4,0.1,2.1v9.2h-2.1V88.2h3.5l3,7.6c0.3,0.7,0.4,1,0.9,2.5l0.3,0.8h0.1
		l0.3-0.8c0.5-1.5,0.7-1.9,0.9-2.5l3-7.6h3.5V101.9z"/>
</g>
<g class="st2">
	<path class="st3" d="M313.8,99.1l-0.9,2.8h-2.2l4.8-13.7h3.1l4.9,13.7h-2.2l-1-2.8H313.8z M317,89.8l-2.7,7.7h5.3L317,89.8z"/>
	<path class="st3" d="M338.4,101.9h-3.5l-4.8-8.4c-0.2-0.5-0.5-0.9-1.4-2.7l-0.4-0.9h-0.1l0,0.7l0,0.7c0,0,0,0.8,0,1.4v9.1h-2.1
		V88.2h3.5l4.3,7.5c0.5,0.8,0.7,1.3,1.8,3.3l0.6,1.1h0.1v-0.7l0-0.7c0-0.1,0-0.8,0-1.4v-9.1h2.1V101.9z"/>
	<path class="st3" d="M344.4,94h6.7v1.6h-6.7v4.5h7v1.8h-9.1V88.2h9.1v1.8h-7V94z"/>
</g>
<g class="st2">
	<path class="st3" d="M362.8,97.7c0,1.6-0.1,2.4-0.6,3c-0.7,0.9-1.7,1.3-3.8,1.3c-2.4,0-3.7-0.5-4.2-1.6c-0.2-0.5-0.3-1.1-0.3-2.5
		c0-0.4,0-0.7,0-1.2h2v0.5c0,1.9,0,2.1,0.3,2.5c0.2,0.3,0.8,0.5,2,0.5c2,0,2.3-0.4,2.3-2.7v-9.3h2.1V97.7z"/>
</g>
<g class="st2">
	<path class="st3" d="M368.5,99.1l-0.9,2.8h-2.2l4.8-13.7h3.1l4.9,13.7h-2.2l-1-2.8H368.5z M371.7,89.8l-2.7,7.7h5.3L371.7,89.8z"/>
	<path class="st3" d="M380.8,88.2h6.6c3.1,0,4.2,1,4.2,4c0,2.6-0.5,3.4-2.4,3.8V96c1.5,0.1,2.3,1,2.3,2.7v3.2h-2.1v-2.8
		c0-1.6-0.7-2.3-2.3-2.2h-4.2v5h-2.1V88.2z M386.9,95.1c0.9,0,1.5-0.1,1.9-0.4c0.5-0.4,0.7-0.8,0.7-2c0-1.6-0.1-2.1-0.7-2.4
		c-0.3-0.2-0.8-0.2-1.5-0.2h-4.4v5.1H386.9z"/>
</g>
</svg>
