<svg id="Capa_1" data-name="Capa 1" xmlns="http://www.w3.org/2000/svg" viewBox="0 0 81.59 70.63"><defs><style>.cls-1{fill:#0a2240;}.cls-2{fill:#ce0e2d;}</style></defs><polygon class="cls-1" points="46.84 16.13 26.98 16.13 0.01 70.63 17.07 70.63 36.88 28.78 57.23 70.63 74.22 70.63 46.84 16.13"/><path class="cls-2" d="M32.79,3.15c-22.09,7.12-36.4,24-32,37.75s25.92,19.09,48,12,36.4-24,32-37.75S54.87-4,32.79,3.15ZM50,51.2c-17.59,5.65-35.26-.35-39.5-13.54s6.57-28.39,24.13-34S69.87,4,74.11,17.15,67.54,45.54,50,51.2Z"/><polygon class="cls-1" points="46.84 16.13 26.98 16.13 36.88 28.78 57.23 70.63 74.22 70.63 46.84 16.13"/></svg>