<svg id="Capa_1" data-name="Capa 1" xmlns="http://www.w3.org/2000/svg" viewBox="0 0 390.32 70.63"><defs><style>.cls-1{fill:#fff;}</style></defs><path class="cls-1" d="M116.34,85.62H106.7V81.11h-.1c-1.71,3.91-5.07,5-10.25,5-6,0-14.31-.27-14.31-12.37V57.59h9.65v16.1c0,2.75,2,4.13,6.22,4.13h2.21c4.12,0,6.58-2.09,6.58-6.11V57.59h9.64Z" transform="translate(-3 -16.15)"/><path class="cls-1" d="M125.27,65.17h-4.82V57.59h4.82V51h9.64v6.6h15v7.58h-15V76c0,2.09,1.41,2.53,3.72,2.53,3.11,0,4-.77,4-3.36V73.25H151v3.41c0,5.33-3.21,9.4-10.9,9.4h-3.81c-5.93,0-11-2-11-9.78Z" transform="translate(-3 -16.15)"/><path class="cls-1" d="M155.8,68.25c0-9.23,5.67-11.1,10.59-11.1H180.8c4.92,0,10.6,1.87,10.6,11.1V75c0,9.23-5.68,11.1-10.6,11.1H166.39c-4.92,0-10.59-1.87-10.59-11.1Zm9.64,4.67c0,4,2.16,5.23,6.57,5.23h2.31c6.23,0,7.43-.88,7.43-4.62V69.68c0-3.74-1.2-4.62-7.43-4.62H172c-4.41,0-6.57,1.21-6.57,5.23Z" transform="translate(-3 -16.15)"/><path class="cls-1" d="M197.82,45.83h33.64c8.58,0,10.89,4.67,10.89,11.81v2.53c0,5.33-1.1,8.47-6.22,9.79v.11c3.31.66,6.07,2.25,6.07,8.79v6.76H231.06V80.84c0-4.18-1.11-5.55-4.57-5.55H209V85.62H197.82ZM209,65.39h18.43c3,0,4.12-1.32,4.12-4.17V59.9c0-3.52-1.61-4.18-5.12-4.18H209Z" transform="translate(-3 -16.15)"/><path class="cls-1" d="M248.22,70.07c0-10.61,4.82-12.92,11.85-12.92h6.73c10.24,0,14.46,2.36,14.46,12.09V74h-23.4v1.7c0,3,1.91,3.8,5.93,3.8h3c5.22,0,5.47-1.54,5.47-3.19h9v1.21c0,7-5.72,8.57-12.7,8.57h-7.23c-6.38,0-13.11-1.32-13.11-13.3Zm23.7-2.37c0-3.35-1.4-4-7-4-6.27,0-7,.61-7,4Z" transform="translate(-3 -16.15)"/><path class="cls-1" d="M286.68,57.59h9.64v4.5h.1c1.71-3.9,5.07-4.94,10.24-4.94,6,0,14.31.27,14.31,12.37v16.1h-9.64V69.52c0-2.75-2-4.13-6.22-4.13H302.9c-4.12,0-6.58,2.09-6.58,6.1V85.62h-9.64Z" transform="translate(-3 -16.15)"/><path class="cls-1" d="M329.91,65.17h-4.82V57.59h4.82V51h9.64v6.6h15v7.58h-15V76c0,2.09,1.4,2.53,3.71,2.53,3.11,0,4-.77,4-3.36V73.25h8.43v3.41c0,5.33-3.21,9.4-10.89,9.4H341c-5.92,0-11-2-11-9.78Z" transform="translate(-3 -16.15)"/><path class="cls-1" d="M359.48,75.78c0-7.64,4.82-8.08,14.16-8.08,5.27,0,8.18.17,10,2.26V67.48c0-2.75-.75-3.74-4.52-3.74h-5.67c-2.82,0-3.62.28-3.72,2.26h-9.34c0-7.59,3.42-8.85,11.55-8.85h11.2c6.62,0,10.14,3.46,10.14,10.06V85.62h-9.14V82.43c-2.66,3-3.66,3.63-8.49,3.63h-6.57c-5.88.06-9.64-1.37-9.64-8Zm17.17,3.69c6.63,0,7.23-1.1,7.23-3,0-2.09-.55-2.86-5.88-2.86h-4.26c-4.07,0-4.92,1-4.92,3.3,0,1.81,1.3,2.53,5.07,2.53Z" transform="translate(-3 -16.15)"/><polygon class="cls-1" points="46.83 16.13 26.96 16.13 0 70.63 17.05 70.63 36.86 28.78 57.22 70.63 74.2 70.63 46.83 16.13"/><path class="cls-1" d="M35.78,19.3c-22.09,7.12-36.4,24-32,37.75s25.92,19.09,48,12,36.4-24,32-37.75S57.86,12.18,35.78,19.3ZM53,67.35C35.41,73,17.74,67,13.5,53.81s6.57-28.39,24.13-34,35.23.4,39.47,13.54S70.53,61.69,53,67.35Z" transform="translate(-3 -16.15)"/><polygon class="cls-1" points="46.83 16.13 26.96 16.13 36.86 28.78 57.22 70.63 74.2 70.63 46.83 16.13"/></svg>