<svg id="Capa_1" data-name="Capa 1" xmlns="http://www.w3.org/2000/svg" viewBox="0 0 542 392">
    <path fill="#aab7ca" d="M19.36,72H522.64C533.33,72,542,64.84,542,56V16c0-8.84-8.67-16-19.36-16H19.36C8.67,0,0,7.16,0,16V56C0,64.84,8.67,72,19.36,72Z"/>
    <path fill="#aab7ca" d="M19.36,232H522.64c10.69,0,19.36-7.16,19.36-16V176c0-8.84-8.67-16-19.36-16H19.36C8.67,160,0,167.16,0,176v40C0,224.84,8.67,232,19.36,232Z"/>
    <path fill="#aab7ca" d="M19.36,392H522.64c10.69,0,19.36-7.16,19.36-16V336c0-8.84-8.67-16-19.36-16H19.36C8.67,320,0,327.16,0,336v40C0,384.84,8.67,392,19.36,392Z"/>
</svg>