<?xml version="1.0" encoding="utf-8"?>
<!-- Generator: Adobe Illustrator 24.2.1, SVG Export Plug-In . SVG Version: 6.00 Build 0)  -->
<svg version="1.1" id="Capa_1" xmlns="http://www.w3.org/2000/svg" xmlns:xlink="http://www.w3.org/1999/xlink" x="0px" y="0px"
	 viewBox="0 0 20 20" style="enable-background:new 0 0 20 20;" xml:space="preserve">
<g>
	<g>
		<path fill="#dc0023"  d="M12.3,6.3L8.4,6.1c0,0-0.1,0-0.1,0L6.2,7.2C6.1,7.3,6,7.3,6,7.4c0,0.1,0,0.1,0.1,0.2l1.1,1.3c0,0,0,0,0,0L12.3,6.3z"/>
		<path fill="#dc0023"  d="M19.9,4.9C19.9,4.9,19.9,4.9,19.9,4.9c-0.2-0.3-0.5-0.6-1.3-0.6c-0.8,0-1.7,0.4-1.7,0.4c-2.2,0.9-12.3,6.2-12.3,6.2
			L2.2,9.5c-0.1,0-0.2,0-0.2,0l-1.7,0.9c-0.1,0-0.1,0.1-0.1,0.2c0,0.1,0,0.2,0.1,0.2l4.2,3.6c0.1,0.1,0.2,0.1,0.3,0l4.1-2.1l0.6,4.4
			c0,0.1,0.1,0.1,0.1,0.2c0,0,0.1,0,0.1,0c0,0,0.1,0,0.1,0c0.4-0.2,0.7-0.4,1-0.5c0.3-0.1,0.5-0.3,1-0.5c0,0,0.1-0.1,0.1-0.1
			l2.9-6.5l3-1.6C19,7,20.4,5.9,19.9,4.9z"/>
	</g>
</g>
</svg>
